<svg width="12" height="20" viewBox="0 0 12 20" fill="none" xmlns="http://www.w3.org/2000/svg">
<path d="M7.72205 9.9721L0.638715 2.88877C0.370382 2.62044 0.240799 2.29641 0.249966 1.91669C0.259133 1.53696 0.398021 1.21294 0.666633 0.944603C0.935244 0.675992 1.26399 0.541687 1.65288 0.541687C2.04177 0.541687 2.37038 0.675992 2.63872 0.944603L10.6945 9.00002C10.8426 9.14808 10.9468 9.30085 11.007 9.45835C11.067 9.61585 11.0971 9.7871 11.0971 9.9721C11.0971 10.1574 11.067 10.3288 11.007 10.4863C10.9468 10.6435 10.8426 10.7963 10.6945 10.9446L2.61122 19.0279C2.34261 19.2963 2.01844 19.4259 1.63872 19.4167C1.25927 19.4075 0.935244 19.2686 0.666633 19C0.398021 18.7314 0.263715 18.4027 0.263715 18.0138C0.263715 17.6249 0.398021 17.2963 0.666633 17.0279L7.72205 9.9721Z" fill="#21252A"/>
</svg>
